<svg id="white" xmlns="http://www.w3.org/2000/svg" viewBox="0 0 600 130.93"><defs><style>.cls-1{fill:#fff;}</style></defs><title>Untitled-1</title><path class="cls-1" d="M174.53,92.38Q168,85.73,168,74.86t6.74-17.34A22.4,22.4,0,0,1,190.78,51q9.33,0,15,7.88V33.35h9.81v65H205.8v-7Q200.37,99,189.94,99A21,21,0,0,1,174.53,92.38Zm3.24-17.12a14.6,14.6,0,0,0,4.29,10.9,13.93,13.93,0,0,0,10.07,4.2,13,13,0,0,0,9.81-4.25,15.2,15.2,0,0,0,4-10.9,16,16,0,0,0-4-11.12,12.82,12.82,0,0,0-9.9-4.47A13.35,13.35,0,0,0,182,64.09,15.66,15.66,0,0,0,177.77,75.26Z"/><path class="cls-1" d="M273.15,79.33H236.63a10.61,10.61,0,0,0,4.64,8.19,16.29,16.29,0,0,0,9.81,3.11q8.75,0,13.31-5.52l5.6,6.13Q262.46,99,250.38,99a23.35,23.35,0,0,1-16.68-6.52Q226.81,86,226.82,75t7-17.47A23.52,23.52,0,0,1,250.33,51a23.92,23.92,0,0,1,16.16,5.74q6.65,5.74,6.65,15.81Zm-36.52-7.71h26.71q0-5.87-3.68-9a13.45,13.45,0,0,0-9.07-3.15,15.52,15.52,0,0,0-9.68,3.29A10.6,10.6,0,0,0,236.63,71.62Z"/><path class="cls-1" d="M308.88,51a22.16,22.16,0,0,1,16,6.48q6.65,6.48,6.66,17.26T325,92.29A20.93,20.93,0,0,1,309.54,99q-8.8,0-15.81-7.71v7h-9.81v-65h9.81V59.89Q299.51,51,308.88,51ZM293.55,75.13a15.21,15.21,0,0,0,4,10.9,13,13,0,0,0,9.81,4.25,13.92,13.92,0,0,0,10.07-4.21,14.59,14.59,0,0,0,4.29-10.9A15.5,15.5,0,0,0,317.55,64a13.42,13.42,0,0,0-10.07-4.42,12.87,12.87,0,0,0-9.9,4.42A15.84,15.84,0,0,0,293.55,75.13Z"/><path class="cls-1" d="M386.13,79.33H349.61a10.61,10.61,0,0,0,4.64,8.19,16.29,16.29,0,0,0,9.81,3.11q8.76,0,13.31-5.52l5.6,6.13Q375.44,99,363.36,99a23.35,23.35,0,0,1-16.69-6.52Q339.8,86,339.8,75t7-17.47A23.52,23.52,0,0,1,363.31,51a23.92,23.92,0,0,1,16.16,5.74q6.66,5.74,6.66,15.81Zm-36.52-7.71h26.71q0-5.87-3.68-9a13.45,13.45,0,0,0-9.06-3.15,15.51,15.51,0,0,0-9.68,3.29A10.6,10.6,0,0,0,349.61,71.62Z"/><path class="cls-1" d="M395.41,60.33V51.92h36.43v8.85L405.66,89.84h27.59v8.5H393.66V88.79l25.49-28.46Z"/><path class="cls-1" d="M444.9,42.46a6.14,6.14,0,1,1,4.38,1.84A6,6,0,0,1,444.9,42.46Zm9.2,55.88h-9.81V51.74h9.81Z"/><path class="cls-1" d="M500.86,77V51.74h9.81V98.34h-9.81v-8.5a17.66,17.66,0,0,1-15.5,9.2q-7.88,0-12.74-4.82T467.75,80.3V51.74h9.81V77.32q0,12.87,10.69,12.87a12.83,12.83,0,0,0,8.85-3.37Q500.86,83.45,500.86,77Z"/><path class="cls-1" d="M534.67,73.11V98.34h-9.81V51.74h9.81v8.5A15.54,15.54,0,0,1,541,53.5,18,18,0,0,1,550.16,51q11,0,15,9.11Q572.06,51,582.4,51q7.88,0,12.74,4.82T600,69.78V98.34h-9.81V72.76q0-12.88-10.69-12.87a13,13,0,0,0-8.71,3.2q-3.72,3.2-3.9,9.33V98.34h-9.81V72.76q0-6.66-2.36-9.77t-7.45-3.11a12.83,12.83,0,0,0-8.85,3.37Q534.66,66.63,534.67,73.11Z"/><path class="cls-1" d="M93.77,114.28A16.64,16.64,0,0,0,110.4,130.9h20.52V110.38a16.64,16.64,0,0,0-16.63-16.63h-3.91A26.39,26.39,0,0,1,84,67.39V63.51A16.64,16.64,0,0,0,67.4,46.88h-3.9A26.39,26.39,0,0,1,37.15,20.52h0V16.62A16.64,16.64,0,0,0,20.52,0H0V20.52A16.64,16.64,0,0,0,16.63,37.15h3.91A26.39,26.39,0,0,1,46.89,63.51v3.89A16.64,16.64,0,0,0,63.51,84h3.9a26.39,26.39,0,0,1,26.36,26.36h0Z"/><path class="cls-1" d="M130.92,63.5a16.64,16.64,0,0,0-16.63-16.63h-3.91A26.39,26.39,0,0,1,84,20.52V16.62A16.64,16.64,0,0,0,67.4,0H46.89V20.75A16.64,16.64,0,0,0,63.51,37.14h3.91A26.39,26.39,0,0,1,93.77,63.5h0v3.89A16.64,16.64,0,0,0,110.34,84h20.58Z"/><path class="cls-1" d="M130.92,16.49A16.63,16.63,0,0,0,115,0H93.46V20.7a16.64,16.64,0,0,0,16.62,16.44h20.84Z"/><path class="cls-1" d="M0,67.43A16.64,16.64,0,0,0,16.64,84.05h3.91A26.39,26.39,0,0,1,46.9,110.41v3.89a16.64,16.64,0,0,0,16.63,16.63H84V110.18A16.64,16.64,0,0,0,67.42,93.78H63.52A26.39,26.39,0,0,1,37.16,67.43h0V63.53A16.64,16.64,0,0,0,20.59,46.91H0Z"/><path class="cls-1" d="M0,114.43a16.63,16.63,0,0,0,16,16.5h21.5V110.22A16.64,16.64,0,0,0,20.85,93.78H0Z"/></svg>